<?xml version="1.0" encoding="UTF-8" standalone="no"?>
<!-- Created with Inkscape (http://www.inkscape.org/) -->

<svg
   version="1.1"
   id="svg177"
   width="59.200001"
   height="59.128647"
   viewBox="0 0 59.200001 59.128647"
   sodipodi:docname="vipera.svg"
   inkscape:version="1.2 (dc2aedaf03, 2022-05-15)"
   xmlns:inkscape="http://www.inkscape.org/namespaces/inkscape"
   xmlns:sodipodi="http://sodipodi.sourceforge.net/DTD/sodipodi-0.dtd"
   xmlns="http://www.w3.org/2000/svg"
   xmlns:svg="http://www.w3.org/2000/svg">
  <defs
     id="defs181" />
  <sodipodi:namedview
     id="namedview179"
     borderopacity="0.25"
     inkscape:showpageshadow="2"
     inkscape:pageopacity="0.0"
     inkscape:pagecheckerboard="0"
     showgrid="false"
     inkscape:zoom="8.0000004"
     inkscape:cx="33.374999"
     inkscape:cy="24.499999"
     inkscape:window-width="2560"
     inkscape:window-height="1009"
     inkscape:window-x="-8"
     inkscape:window-y="-8"
     inkscape:window-maximized="1"
     inkscape:current-layer="g187"
     pagecolor="#ffffff"
     bordercolor="#000000"
     inkscape:deskcolor="#d1d1d1" />
  <g
     inkscape:groupmode="layer"
     inkscape:label="Image"
     id="g183"
     transform="translate(-2.4167835,-3.0430521)">
    <g
       id="g187"
       transform="translate(-0.23160474,-1.6212304)">
      <path
         style="fill:#74BF04;stroke-width:0.32"
         d="M 28.85872,63.049952 C 26.932029,62.03495 25.029966,59.545622 22.043711,54.1308 18.517516,47.736931 15.116892,42.467702 10.310019,35.949571 4.1186686,27.554085 2.6483882,24.346646 2.6483882,19.235605 c 0,-7.521006 5.8729556,-14.1973588 12.8000008,-14.5509875 3.087392,-0.1576128 4.527626,0.5802467 5.741203,2.9413291 1.078725,2.09872 1.045771,5.1256594 -0.106332,9.7669844 -1.517107,6.111773 -1.203742,8.457531 2.116031,15.84 0.791443,1.76 1.837115,4.175882 2.323716,5.368627 1.101668,2.700391 2.19859,3.898723 4.02482,4.396928 0.781309,0.213146 1.61859,0.445491 1.860625,0.51632 0.353955,0.103587 0.404337,0.83217 0.257482,3.723456 -0.10042,1.977069 -0.259563,4.026669 -0.353652,4.554669 -0.173049,0.971107 -0.02839,0.577821 0.765087,-2.08 0.204706,-0.68568 0.295145,-0.53344 0.632882,1.065379 0.216727,1.025955 0.467533,1.791891 0.557344,1.70208 0.08982,-0.08981 0.0052,-0.90032 -0.187955,-1.801129 -0.495603,-2.310925 -0.463533,-7.034583 0.04875,-7.179828 0.22,-0.06237 1.039254,-0.287801 1.820563,-0.500947 1.826231,-0.498205 2.923149,-1.696537 4.024819,-4.396928 0.486601,-1.192745 1.532271,-3.608627 2.323715,-5.368627 3.319772,-7.382469 3.633139,-9.728227 2.116032,-15.84 -1.152103,-4.641325 -1.185056,-7.6682644 -0.106333,-9.7669844 1.213577,-2.3610824 2.653811,-3.0989419 5.741203,-2.9413291 6.944416,0.3545155 12.8,7.0111215 12.8,14.5509875 0,5.111041 -1.470282,8.31848 -7.661632,16.713966 -4.80687,6.518131 -8.207494,11.78736 -11.73369,18.181229 -4.285622,7.770896 -6.283052,9.662131 -10.204678,9.662131 -1.4525,0 -2.354724,-0.197757 -3.389669,-0.742979 z M 24.902013,31.029354 c -0.594224,-0.630062 -1.253184,-1.669085 -1.464356,-2.30894 -0.46943,-1.422389 -0.236608,-3.857287 0.432843,-4.526737 0.44439,-0.44439 0.589246,-0.34199 1.461198,1.032936 1.486432,2.343859 2.129506,6.4625 1.063707,6.812634 -0.227141,0.07462 -0.899167,-0.379832 -1.493392,-1.009893 z m 12.83971,0.870244 c -0.688243,-0.688241 0.168333,-4.69402 1.428727,-6.681455 0.867113,-1.367296 1.011437,-1.468856 1.455827,-1.024466 0.669453,0.66945 0.902275,3.104348 0.432845,4.526737 -0.385632,1.168473 -2.21808,3.392517 -2.795184,3.392517 -0.169885,0 -0.404883,-0.096 -0.522215,-0.213333 z"
         id="path201" />
    </g>
  </g>
</svg>
